HIERARCHY
ROOT Hips
{
	OFFSET 0.000000 71.427986 0.000000
	CHANNELS 6 Xposition Yposition Zposition Xrotation Yrotation Zrotation
	JOINT Pelvis
	{
		OFFSET 0.000000 0.000000 0.000000
		CHANNELS 3 Xrotation Yrotation Zrotation
		JOINT LeftUpLeg
		{
			OFFSET 6.797100 -2.508499 -1.318700
			CHANNELS 3 Xrotation Yrotation Zrotation
			JOINT LeftLeg
			{
				OFFSET 0.069008 -29.241863 0.690200
				CHANNELS 3 Xrotation Yrotation Zrotation
				JOINT LeftFoot
				{
					OFFSET -0.069008 -29.568123 -0.266800
					CHANNELS 3 Xrotation Yrotation Zrotation
					JOINT LeftToeBase
					{
						OFFSET 3.145500 -8.631000 16.059900
						CHANNELS 3 Xrotation Yrotation Zrotation
						End Site
						{
							OFFSET 0.000000 18.501587 0.000000
						}
					}
				}
			}
			JOINT Left_ShortSleeve
			{
				OFFSET 0.265923 -10.480953 1.153800
				CHANNELS 3 Xrotation Yrotation Zrotation
				End Site
				{
					OFFSET 1.725763 19.823879 0.000000
				}
			}
		}
		JOINT RightUpLeg
		{
			OFFSET -6.797100 -2.508499 -1.318700
			CHANNELS 3 Xrotation Yrotation Zrotation
			JOINT RightLeg
			{
				OFFSET -0.082453 -29.241932 0.688000
				CHANNELS 3 Xrotation Yrotation Zrotation
				JOINT RightFoot
				{
					OFFSET 0.082453 -29.568058 -0.264600
					CHANNELS 3 Xrotation Yrotation Zrotation
					JOINT RightToeBase
					{
						OFFSET -3.115300 -8.682800 16.113400
						CHANNELS 3 Xrotation Yrotation Zrotation
						End Site
						{
							OFFSET 0.000000 18.567114 0.000000
						}
					}
				}
			}
			JOINT Right_ShortSleeve
			{
				OFFSET -0.265923 -10.480953 1.153800
				CHANNELS 3 Xrotation Yrotation Zrotation
				End Site
				{
					OFFSET -1.725766 19.823910 0.000000
				}
			}
		}
	}
	JOINT Spine
	{
		OFFSET 0.000000 13.368103 0.470500
		CHANNELS 3 Xrotation Yrotation Zrotation
		JOINT Spine1
		{
			OFFSET 0.147000 13.837402 0.538800
			CHANNELS 3 Xrotation Yrotation Zrotation
			JOINT Spine2
			{
				OFFSET 0.168000 16.242897 -1.435500
				CHANNELS 3 Xrotation Yrotation Zrotation
				JOINT Neck
				{
					OFFSET 0.217200 18.631500 -1.679100
					CHANNELS 3 Xrotation Yrotation Zrotation
					JOINT Head
					{
						OFFSET 0.000000 6.599396 1.385900
						CHANNELS 3 Xrotation Yrotation Zrotation
						JOINT Hat
						{
							OFFSET -0.532200 27.220596 -10.096100
							CHANNELS 3 Xrotation Yrotation Zrotation
							End Site
							{
								OFFSET 0.000000 22.029861 0.000000
							}
						}
						JOINT HairD
						{
							OFFSET -10.777400 17.437393 -1.325900
							CHANNELS 3 Xrotation Yrotation Zrotation
							JOINT HairD1
							{
								OFFSET -3.290299 -11.051193 1.062200
								CHANNELS 3 Xrotation Yrotation Zrotation
								End Site
								{
									OFFSET 0.000000 11.579437 0.000000
								}
							}
						}
						JOINT HairB
						{
							OFFSET -10.777400 17.437393 1.467900
							CHANNELS 3 Xrotation Yrotation Zrotation
							JOINT HairB1
							{
								OFFSET -1.561200 -12.956299 3.590200
								CHANNELS 3 Xrotation Yrotation Zrotation
								End Site
								{
									OFFSET 0.000000 13.534866 0.000000
								}
							}
						}
						JOINT HairA
						{
							OFFSET 9.713100 17.437393 1.467900
							CHANNELS 3 Xrotation Yrotation Zrotation
							JOINT HairA1
							{
								OFFSET 1.561200 -12.956299 3.590200
								CHANNELS 3 Xrotation Yrotation Zrotation
								End Site
								{
									OFFSET 0.000000 13.534866 0.000000
								}
							}
						}
						JOINT HairC
						{
							OFFSET 9.713100 17.437393 -1.325900
							CHANNELS 3 Xrotation Yrotation Zrotation
							JOINT HairC1
							{
								OFFSET 3.290300 -11.051193 1.062200
								CHANNELS 3 Xrotation Yrotation Zrotation
								End Site
								{
									OFFSET 0.000000 11.579437 0.000000
								}
							}
						}
					}
				}
				JOINT LeftShoulder
				{
					OFFSET 5.101800 15.108002 -2.763700
					CHANNELS 3 Xrotation Yrotation Zrotation
					JOINT LeftArm
					{
						OFFSET 9.825497 2.506317 -1.597400
						CHANNELS 3 Xrotation Yrotation Zrotation
						JOINT LeftForeArm
						{
							OFFSET 21.966244 0.000000 0.000000
							CHANNELS 3 Xrotation Yrotation Zrotation
							JOINT LeftHand
							{
								OFFSET 33.879036 0.000000 0.000000
								CHANNELS 3 Xrotation Yrotation Zrotation
								JOINT LeftHandThumb1
								{
									OFFSET 6.715286 -2.359680 3.363841
									CHANNELS 3 Xrotation Yrotation Zrotation
									JOINT LeftHandThumb2
									{
										OFFSET 2.507072 -1.447464 1.447461
										CHANNELS 3 Xrotation Yrotation Zrotation
										JOINT LeftHandThumb3
										{
											OFFSET 2.898338 -1.673355 1.673357
											CHANNELS 3 Xrotation Yrotation Zrotation
											End Site
											{
												OFFSET -0.295959 3.727692 -0.131651
											}
										}
									}
								}
								JOINT LeftHandIndex1
								{
									OFFSET 14.190811 -0.254547 3.840278
									CHANNELS 3 Xrotation Yrotation Zrotation
									JOINT LeftHandIndex2
									{
										OFFSET 3.551727 0.000000 -0.000000
										CHANNELS 3 Xrotation Yrotation Zrotation
										JOINT LeftHandIndex3
										{
											OFFSET 2.894196 0.000000 0.000000
											CHANNELS 3 Xrotation Yrotation Zrotation
											End Site
											{
												OFFSET -1.000603 2.690872 0.366626
											}
										}
									}
								}
								JOINT LeftHandMiddle1
								{
									OFFSET 13.776489 0.000000 0.000000
									CHANNELS 3 Xrotation Yrotation Zrotation
									JOINT LeftHandMiddle2
									{
										OFFSET 3.438232 0.000000 0.000000
										CHANNELS 3 Xrotation Yrotation Zrotation
										JOINT LeftHandMiddle3
										{
											OFFSET 3.691551 0.000000 0.000000
											CHANNELS 3 Xrotation Yrotation Zrotation
											End Site
											{
												OFFSET -1.082298 3.499527 0.457670
											}
										}
									}
								}
								JOINT LeftHandRing1
								{
									OFFSET 13.966164 -0.268127 -3.067488
									CHANNELS 3 Xrotation Yrotation Zrotation
									JOINT LeftHandRing2
									{
										OFFSET 3.162567 0.000000 0.000000
										CHANNELS 3 Xrotation Yrotation Zrotation
										JOINT LeftHandRing3
										{
											OFFSET 3.324348 0.000000 0.000000
											CHANNELS 3 Xrotation Yrotation Zrotation
											End Site
											{
												OFFSET -0.861900 3.184998 0.405154
											}
										}
									}
								}
								JOINT LeftHandPinky1
								{
									OFFSET 13.131393 -0.168503 -5.746925
									CHANNELS 3 Xrotation Yrotation Zrotation
									JOINT LeftHandPinky2
									{
										OFFSET 2.849182 0.000000 0.000000
										CHANNELS 3 Xrotation Yrotation Zrotation
										JOINT LeftHandPinky3
										{
											OFFSET 2.805038 0.000000 0.000000
											CHANNELS 3 Xrotation Yrotation Zrotation
											End Site
											{
												OFFSET -0.882500 2.642609 0.325652
											}
										}
									}
								}
							}
							JOINT Left_Sleeve
							{
								OFFSET 6.592125 -0.646545 0.805568
								CHANNELS 3 Xrotation Yrotation Zrotation
								End Site
								{
									OFFSET -0.000179 20.275787 -0.000000
								}
							}
						}
					}
				}
				JOINT RightShoulder
				{
					OFFSET -5.731700 15.108002 -2.763700
					CHANNELS 3 Xrotation Yrotation Zrotation
					JOINT RightArm
					{
						OFFSET -9.825497 2.506317 -1.597400
						CHANNELS 3 Xrotation Yrotation Zrotation
						JOINT RightForeArm
						{
							OFFSET -21.966242 0.000000 0.000000
							CHANNELS 3 Xrotation Yrotation Zrotation
							JOINT RightHand
							{
								OFFSET -33.879032 0.000000 0.000000
								CHANNELS 3 Xrotation Yrotation Zrotation
								JOINT RightHandThumb1
								{
									OFFSET -6.715286 -2.359680 3.363841
									CHANNELS 3 Xrotation Yrotation Zrotation
									JOINT RightHandThumb2
									{
										OFFSET -2.507072 -1.447464 1.447461
										CHANNELS 3 Xrotation Yrotation Zrotation
										JOINT RightHandThumb3
										{
											OFFSET -2.898338 -1.673355 1.673357
											CHANNELS 3 Xrotation Yrotation Zrotation
											End Site
											{
												OFFSET 0.295959 3.727692 -0.131651
											}
										}
									}
								}
								JOINT RightHandIndex1
								{
									OFFSET -14.190811 -0.254547 3.840278
									CHANNELS 3 Xrotation Yrotation Zrotation
									JOINT RightHandIndex2
									{
										OFFSET -3.551727 0.000000 -0.000000
										CHANNELS 3 Xrotation Yrotation Zrotation
										JOINT RightHandIndex3
										{
											OFFSET -2.894196 0.000000 0.000000
											CHANNELS 3 Xrotation Yrotation Zrotation
											End Site
											{
												OFFSET 1.000603 2.690872 0.366626
											}
										}
									}
								}
								JOINT RightHandMiddle1
								{
									OFFSET -13.776489 0.000000 0.000000
									CHANNELS 3 Xrotation Yrotation Zrotation
									JOINT RightHandMiddle2
									{
										OFFSET -3.438232 0.000000 0.000000
										CHANNELS 3 Xrotation Yrotation Zrotation
										JOINT RightHandMiddle3
										{
											OFFSET -3.691551 0.000000 0.000000
											CHANNELS 3 Xrotation Yrotation Zrotation
											End Site
											{
												OFFSET 1.082298 3.499527 0.457670
											}
										}
									}
								}
								JOINT RightHandRing1
								{
									OFFSET -13.966164 -0.268127 -3.067488
									CHANNELS 3 Xrotation Yrotation Zrotation
									JOINT RightHandRing2
									{
										OFFSET -3.162567 0.000000 0.000000
										CHANNELS 3 Xrotation Yrotation Zrotation
										JOINT RightHandRing3
										{
											OFFSET -3.324348 0.000000 0.000000
											CHANNELS 3 Xrotation Yrotation Zrotation
											End Site
											{
												OFFSET 0.861900 3.184998 0.405154
											}
										}
									}
								}
								JOINT RightHandPinky1
								{
									OFFSET -13.131393 -0.168503 -5.746925
									CHANNELS 3 Xrotation Yrotation Zrotation
									JOINT RightHandPinky2
									{
										OFFSET -2.849182 0.000000 0.000000
										CHANNELS 3 Xrotation Yrotation Zrotation
										JOINT RightHandPinky3
										{
											OFFSET -2.805038 0.000000 0.000000
											CHANNELS 3 Xrotation Yrotation Zrotation
											End Site
											{
												OFFSET 0.882500 2.642609 0.325652
											}
										}
									}
								}
							}
							JOINT Right_Sleeve
							{
								OFFSET -6.592125 -0.646545 0.805568
								CHANNELS 3 Xrotation Yrotation Zrotation
								End Site
								{
									OFFSET 0.000179 20.275787 -0.000000
								}
							}
						}
					}
				}
				JOINT Bind_Right_JacketString
				{
					OFFSET -3.534800 11.969597 7.200700
					CHANNELS 3 Xrotation Yrotation Zrotation
					JOINT Bind_Right_JacketString1
					{
						OFFSET -0.319900 -6.102600 2.794100
						CHANNELS 3 Xrotation Yrotation Zrotation
						End Site
						{
							OFFSET 0.000000 6.719452 0.000000
						}
					}
				}
				JOINT Bind_Left_JacketString
				{
					OFFSET 2.904800 11.969597 7.200700
					CHANNELS 3 Xrotation Yrotation Zrotation
					JOINT Bind_Left_JacketString1
					{
						OFFSET 0.364800 -5.904503 3.186800
						CHANNELS 3 Xrotation Yrotation Zrotation
						End Site
						{
							OFFSET 0.000000 6.719513 0.000000
						}
					}
				}
				JOINT HairE
				{
					OFFSET 5.915200 17.612701 -11.592200
					CHANNELS 3 Xrotation Yrotation Zrotation
					JOINT HairE1
					{
						OFFSET 0.289200 -7.171898 -1.284500
						CHANNELS 3 Xrotation Yrotation Zrotation
						End Site
						{
							OFFSET 0.000000 7.291756 0.000000
						}
					}
				}
				JOINT HairF
				{
					OFFSET -0.864800 17.612701 -11.592200
					CHANNELS 3 Xrotation Yrotation Zrotation
					JOINT HairF1
					{
						OFFSET 0.000000 -14.087097 -2.127501
						CHANNELS 3 Xrotation Yrotation Zrotation
						End Site
						{
							OFFSET 0.000000 14.246841 0.000000
						}
					}
				}
				JOINT HairG
				{
					OFFSET -8.087700 17.612701 -11.592200
					CHANNELS 3 Xrotation Yrotation Zrotation
					JOINT HairG1
					{
						OFFSET -0.293600 -6.081398 -0.910100
						CHANNELS 3 Xrotation Yrotation Zrotation
						End Site
						{
							OFFSET 0.000000 6.156120 0.000000
						}
					}
				}
			}
		}
	}
	JOINT Pouch
	{
		OFFSET 0.000000 4.394501 10.847300
		CHANNELS 3 Xrotation Yrotation Zrotation
		End Site
		{
			OFFSET 0.000000 21.880577 0.000000
		}
	}
	JOINT Bag
	{
		OFFSET -13.229000 4.813004 -0.593300
		CHANNELS 3 Xrotation Yrotation Zrotation
		End Site
		{
			OFFSET 0.000000 21.880577 0.000000
		}
	}
	JOINT OccupyGuyFacialAnim_Joint
	{
		OFFSET 1.000000 -70.206398 -1.655000
		CHANNELS 3 Xrotation Yrotation Zrotation
		End Site
		{
			OFFSET 0.000000 21.880577 0.000000
		}
	}
}
MOTION
Frames: 4
Frame Time: 0.016667
-0.035219 70.332634 0.122304 2.912484 -28.986172 1.187814 -0.000000 -0.000000 0.000000 -14.990180 18.717655 9.352843 17.121983 13.218486 -0.902181 -4.452341 -4.009205 -5.090848 0.000000 -0.000000 0.000000 -0.000000 -0.000001 0.000000 -5.454562 -1.939631 -9.246275 10.907490 9.735230 0.827568 -8.842039 -1.017216 7.078545 0.000000 -0.000001 0.000000 0.000000 0.000005 -0.000000 7.835987 -0.366784 -2.679179 1.099247 -0.880570 2.383465 1.108684 -0.590431 2.446364 -3.841829 18.019036 -6.496413 -6.332734 13.021622 0.301451 -0.000000 0.000000 -0.000000 -0.000000 0.000000 -0.000000 -0.000000 0.000000 -0.000000 -0.000000 0.000000 -0.000000 -0.000000 0.000000 -0.000000 -0.000000 0.000000 -0.000000 -0.000000 0.000000 -0.000000 -0.000000 0.000000 -0.000000 -0.000000 0.000000 -0.000000 -0.057081 -8.759457 -0.061262 -55.250763 0.329469 -41.449372 11.584423 -65.827341 13.005552 -50.189108 12.353131 4.610165 17.551629 -5.699202 -12.932293 10.850496 26.127765 8.644849 -0.000001 0.000001 -0.000000 13.980900 1.201543 -55.004353 0.370819 1.161707 -65.441900 -0.000000 -0.000001 -0.000000 7.504739 1.174469 -63.778483 1.807804 1.475678 -64.567957 0.000001 -0.000001 0.000000 8.574339 2.179050 -75.148979 -0.207648 1.009262 -57.855063 -0.000002 -0.000000 -0.000003 10.030099 13.637065 -84.750230 0.877105 0.062281 -64.595496 -0.000000 -0.000000 -0.000001 -0.000001 0.000001 0.000002 4.849283 7.760152 5.560468 -0.933506 -2.176886 61.845635 11.299306 18.943449 -3.987603 -0.459240 6.620149 5.830122 15.788522 -2.734480 -17.205880 -2.198298 -31.113561 7.361311 -0.000001 -0.000001 -0.000001 2.372303 -3.659082 8.487521 -2.147370 -2.473134 18.673273 0.000000 0.000001 0.000000 -1.976249 -5.707896 13.662392 0.283057 -5.105404 26.988109 -0.000000 0.000000 -0.000001 -3.263071 -8.563308 11.769014 4.036051 -4.063319 33.263154 0.000001 0.000000 -0.000003 -6.474135 -11.347968 23.260727 10.719415 -2.558787 34.822955 -0.000001 0.000000 0.000001 0.000000 -0.000000 0.000002 -0.000001 -0.000001 0.000000 -0.000001 -0.000003 0.000001 -0.000001 -0.000001 0.000001 -0.000001 -0.000001 0.000001 -0.000001 -0.000001 0.000000 -0.000001 -0.000003 0.000001 -0.000001 -0.000001 0.000001 -0.000001 -0.000001 0.000001 -0.000001 -0.000001 0.000000 -0.000001 -0.000003 0.000001 -0.000000 -0.000000 0.000000 -0.000000 -0.000000 0.000000 -0.000000 -0.000000 0.000000 
0.010270 70.321426 0.098435 2.891271 -29.075255 1.193004 -0.000000 0.000000 0.000000 -15.056375 18.717107 9.337657 17.266839 13.237137 -0.901435 -4.509103 -3.948355 -5.073525 0.000000 0.000000 0.000000 0.000000 -0.000000 -0.000000 -5.585948 -1.904414 -9.295079 11.084221 9.729412 0.826986 -8.880119 -0.930587 7.107675 -0.000000 -0.000001 -0.000000 0.000000 -0.000002 -0.000000 7.936436 -0.345827 -2.623087 1.080460 -0.850003 2.358319 1.088648 -0.565125 2.416394 -3.855336 18.005318 -6.571705 -6.317580 12.968642 0.353973 0.000000 0.000000 -0.000000 0.000000 0.000000 -0.000000 0.000000 0.000000 -0.000000 0.000000 0.000000 0.000000 0.000000 0.000000 0.000000 0.000000 0.000000 0.000000 0.000000 0.000000 0.000000 0.000000 0.000000 -0.000000 0.000000 0.000000 -0.000000 -0.057069 -8.759451 -0.061263 -55.271431 0.413110 -41.445212 11.503712 -65.871137 12.918056 -50.190320 12.364724 4.610389 17.551634 -5.699199 -12.932286 10.850498 26.127765 8.644847 0.000001 0.000001 0.000001 13.980900 1.201541 -55.004353 0.370822 1.161705 -65.441900 0.000001 0.000001 -0.000003 7.504741 1.174468 -63.778483 1.807804 1.475678 -64.567964 0.000002 0.000001 0.000003 8.574340 2.179050 -75.148979 -0.207649 1.009259 -57.855063 -0.000002 0.000000 -0.000005 10.030099 13.637066 -84.750237 0.877106 0.062280 -64.595503 -0.000001 -0.000001 -0.000002 0.000002 -0.000002 0.000001 4.865850 7.713963 5.066079 -1.727480 -3.842176 62.180806 11.300529 19.067262 -3.968916 -0.401669 6.552088 5.647296 15.848957 -2.695788 -17.150603 -2.384678 -31.097510 7.210825 -0.000001 0.000000 0.000003 2.412223 -3.560312 9.283006 -2.102627 -2.491893 20.475860 0.000001 -0.000000 0.000002 -1.994707 -5.660136 14.224531 0.416710 -5.085385 28.451571 -0.000001 -0.000000 -0.000001 -3.395382 -8.569160 12.124402 4.157464 -3.928414 34.228441 0.000001 -0.000001 -0.000000 -6.836876 -11.346086 23.402363 10.672931 -2.539587 35.822358 -0.000000 0.000001 0.000001 0.000001 0.000000 0.000003 -0.000000 0.000002 -0.000000 -0.000000 0.000002 -0.000000 -0.000000 0.000002 0.000000 -0.000000 0.000002 0.000000 -0.000000 0.000002 -0.000000 -0.000000 0.000002 0.000000 -0.000000 0.000002 0.000000 -0.000000 0.000002 0.000000 -0.000000 0.000002 -0.000000 -0.000000 0.000002 0.000000 -0.000000 0.000000 0.000000 -0.000000 0.000000 0.000000 -0.000000 0.000000 0.000000 
0.063600 70.303780 0.070530 2.891562 -29.191887 1.224798 0.000000 -0.000001 0.000000 -15.164463 18.716784 9.313234 17.464741 13.180710 -0.904982 -4.589755 -3.784504 -5.048351 0.000000 0.000000 0.000000 0.000000 -0.000001 -0.000000 -5.807603 -1.835240 -9.361254 11.384723 9.564499 0.813233 -8.966637 -0.679155 7.167563 -0.000000 -0.000001 0.000000 0.000000 -0.000004 -0.000001 8.054659 -0.324935 -2.567416 1.045027 -0.814356 2.320275 1.051743 -0.537267 2.372768 -3.859431 18.003603 -6.653443 -6.291795 12.928297 0.401020 0.000000 0.000000 -0.000000 0.000000 0.000000 -0.000000 0.000000 0.000000 -0.000000 0.000000 0.000000 -0.000000 -0.000000 -0.000000 -0.000000 0.000000 0.000000 -0.000000 -0.000000 -0.000000 -0.000000 0.000000 0.000000 -0.000000 0.000000 0.000000 -0.000000 -0.056871 -8.756174 -0.061016 -55.279098 0.492959 -41.432197 11.415637 -65.915779 12.820449 -50.192554 12.364372 4.627880 17.551634 -5.699201 -12.932290 10.850496 26.127763 8.644850 -0.000002 0.000001 0.000000 13.980902 1.201543 -55.004353 0.370815 1.161707 -65.441893 0.000001 0.000001 -0.000000 7.504742 1.174471 -63.778483 1.807803 1.475678 -64.567957 0.000002 0.000000 -0.000005 8.574341 2.179050 -75.148979 -0.207648 1.009260 -57.855063 0.000001 0.000001 0.000005 10.030099 13.637063 -84.750237 0.877107 0.062282 -64.595503 -0.000000 0.000000 0.000001 0.000004 -0.000000 -0.000000 4.899516 7.770214 4.883299 -2.486722 -5.619541 62.291797 11.240947 19.305414 -3.821085 -0.295081 6.502939 5.287234 15.913509 -2.655495 -17.091835 -2.582638 -31.081271 7.049764 -0.000001 0.000002 0.000006 2.451975 -3.455406 10.124575 -2.056494 -2.510898 22.383104 -0.000000 0.000000 -0.000001 -2.015459 -5.610612 14.819362 0.556758 -5.060596 29.999857 -0.000001 0.000000 0.000001 -3.535405 -8.575332 12.500584 4.281583 -3.782349 35.249196 0.000000 -0.000001 -0.000000 -7.220722 -11.346663 23.553279 10.626883 -2.521960 36.881850 -0.000000 0.000000 0.000000 -0.000000 -0.000001 -0.000001 0.000001 -0.000002 -0.000000 0.000001 -0.000000 -0.000001 0.000001 -0.000002 0.000000 0.000001 -0.000002 0.000000 0.000001 -0.000002 -0.000000 0.000001 -0.000000 -0.000000 0.000001 -0.000002 0.000000 0.000001 -0.000002 0.000000 0.000001 -0.000002 -0.000000 0.000001 -0.000000 -0.000000 0.000000 -0.000001 0.000000 0.000000 -0.000001 0.000000 0.000000 -0.000001 0.000000 
0.130741 70.276405 0.038156 2.912055 -29.355709 1.291551 -0.000000 0.000000 -0.000000 -15.324699 18.721379 9.265717 17.744275 13.096637 -0.897568 -4.709744 -3.542089 -5.026925 -0.000000 0.000000 0.000000 0.000001 -0.000001 -0.000000 -6.149504 -1.731221 -9.462140 11.852231 9.289333 0.790335 -9.119830 -0.285098 7.254195 0.000000 0.000001 -0.000000 0.000000 0.000002 -0.000000 8.215049 -0.300045 -2.500108 0.982373 -0.769366 2.257494 0.987263 -0.504674 2.302935 -3.858820 18.023143 -6.759835 -6.253560 12.897461 0.461517 0.000000 0.000000 -0.000000 0.000000 0.000000 -0.000000 0.000000 0.000000 -0.000000 0.000000 0.000000 -0.000000 -0.000000 -0.000000 -0.000000 0.000000 0.000000 -0.000000 -0.000000 -0.000000 -0.000000 0.000000 0.000000 -0.000000 0.000000 0.000000 -0.000000 -0.053858 -8.693461 -0.060970 -55.250397 0.554215 -41.417488 11.247163 -65.966309 12.636339 -50.201464 12.368748 4.700058 17.551633 -5.699201 -12.932290 10.850499 26.127767 8.644849 0.000000 -0.000000 0.000000 13.980902 1.201542 -55.004353 0.370816 1.161706 -65.441900 0.000001 0.000000 -0.000005 7.504742 1.174467 -63.778490 1.807802 1.475679 -64.567957 0.000003 0.000000 0.000001 8.574340 2.179051 -75.148979 -0.207650 1.009260 -57.855063 -0.000001 0.000001 -0.000005 10.030099 13.637063 -84.750237 0.877105 0.062282 -64.595496 0.000000 -0.000001 -0.000002 0.000002 -0.000001 -0.000000 4.923730 7.918121 4.671085 -3.132922 -7.632033 62.463835 11.059131 19.707853 -3.492790 -0.105815 6.503903 4.622646 15.981664 -2.613727 -17.029890 -2.790796 -31.064687 6.879377 -0.000001 -0.000000 0.000003 2.490958 -3.344928 11.007153 -2.009445 -2.530173 24.383617 -0.000000 0.000000 -0.000001 -2.038538 -5.559742 15.443206 0.702053 -5.030693 31.623800 0.000001 0.000000 -0.000001 -3.682332 -8.585997 12.895192 4.407013 -3.625682 36.319114 0.000001 0.000000 -0.000002 -7.623289 -11.350003 23.712684 10.582175 -2.506282 37.995004 -0.000001 0.000001 -0.000001 -0.000000 0.000000 0.000000 0.000000 -0.000001 0.000000 0.000001 0.000000 -0.000000 0.000000 -0.000001 0.000001 0.000000 -0.000001 0.000001 0.000000 -0.000001 0.000000 0.000001 0.000000 -0.000000 0.000000 -0.000001 0.000001 0.000000 -0.000001 0.000001 0.000000 -0.000001 0.000000 0.000001 0.000000 -0.000000 -0.000000 0.000000 -0.000000 -0.000000 0.000000 -0.000000 -0.000000 0.000000 -0.000000 
